<svg width="15" height="16" viewBox="0 0 15 16" fill="none" xmlns="http://www.w3.org/2000/svg">
<path d="M14.8388 7.86283C14.8388 7.34881 14.7971 6.83202 14.7082 6.32633H7.57582V9.23818H11.6602C11.4907 10.1773 10.9461 11.0081 10.1487 11.536V13.4254H12.5854C14.0164 12.1084 14.8388 10.1634 14.8388 7.86283Z" fill="#5551FF"/>
<path d="M7.57579 15.2508C9.6152 15.2508 11.3351 14.5812 12.5882 13.4253L10.1514 11.5359C9.47349 11.9972 8.59827 12.2583 7.57857 12.2583C5.60584 12.2583 3.9332 10.9275 3.33304 9.13811H0.818515V11.0858C2.10218 13.6393 4.71673 15.2508 7.57579 15.2508Z" fill="#5551FF"/>
<path d="M3.3303 9.13803C3.01355 8.1989 3.01355 7.18198 3.3303 6.24285V4.29514H0.818547C-0.253948 6.43179 -0.253979 8.94917 0.818515 11.0858L3.3303 9.13803Z" fill="#5551FF"/>
<path d="M7.57579 3.11989C8.65384 3.10322 9.69577 3.50888 10.4765 4.25351L12.6354 2.09463C11.2684 0.81097 9.45404 0.105235 7.57579 0.127463C4.71673 0.127463 2.10221 1.73893 0.818547 4.29514L3.3303 6.24285C3.92767 4.45073 5.60306 3.11989 7.57579 3.11989Z" fill="#5551FF"/>
</svg>
