<svg width="20" height="20" viewBox="0 0 20 20" fill="none" xmlns="http://www.w3.org/2000/svg">
<path d="M15.9196 4.11523H3.31789C2.45152 4.11523 1.75055 4.82408 1.75055 5.69044L1.74268 15.1417C1.74268 16.0081 2.45152 16.7169 3.31789 16.7169H15.9196C16.7859 16.7169 17.4948 16.0081 17.4948 15.1417V5.69044C17.4948 4.82408 16.7859 4.11523 15.9196 4.11523ZM15.6045 7.46255L10.0362 10.9438C9.78412 11.1013 9.45333 11.1013 9.20129 10.9438L3.63293 7.46255C3.43603 7.33654 3.31789 7.12388 3.31789 6.89548C3.31789 6.36778 3.89284 6.05274 4.34177 6.3284L9.61872 9.62847L14.8957 6.3284C15.3446 6.05274 15.9196 6.36778 15.9196 6.89548C15.9196 7.12388 15.8014 7.33654 15.6045 7.46255Z" fill="#5551FF"/>
</svg>
