<svg width="16" height="16" viewBox="0 0 16 16" fill="none" xmlns="http://www.w3.org/2000/svg">
<path fill-rule="evenodd" clip-rule="evenodd" d="M7.95926 0.863281C3.60138 0.863281 0.0688477 4.3035 0.0688477 8.54854C0.0688477 11.9446 2.32945 14.8254 5.4651 15.8416C5.85962 15.9127 6.00323 15.6752 6.00323 15.4708C6.00323 15.2893 5.99691 14.8056 5.99297 14.1641C3.79786 14.6281 3.33469 13.1337 3.33469 13.1337C2.97646 12.246 2.45885 12.0093 2.45885 12.0093C1.7424 11.5327 2.5133 11.5422 2.5133 11.5422C3.30471 11.5966 3.72132 12.3344 3.72132 12.3344C4.42514 13.5085 5.56846 13.17 6.01743 12.9735C6.09002 12.4764 6.29359 12.1371 6.51926 11.9454C4.76759 11.752 2.92518 11.0924 2.92518 8.14692C2.92518 7.30817 3.2329 6.6217 3.7371 6.08516C3.65583 5.89026 3.38519 5.10832 3.81443 4.05101C3.81443 4.05101 4.47722 3.84428 5.98429 4.83847C6.62873 4.66758 7.29254 4.58059 7.95926 4.57967C8.62994 4.58282 9.30457 4.66804 9.93502 4.83847C11.4413 3.84428 12.1025 4.05101 12.1025 4.05101C12.5333 5.10832 12.2627 5.89026 12.1814 6.08516C12.6864 6.6217 12.9926 7.30817 12.9926 8.14692C12.9926 11.0995 11.147 11.7497 9.38979 11.9398C9.67306 12.1766 9.92476 12.646 9.92476 13.3633C9.92476 14.3898 9.91529 15.2191 9.91529 15.4708C9.91529 15.6767 10.0573 15.9158 10.4582 15.8416C13.5906 14.8214 15.8497 11.943 15.8497 8.54854C15.8497 4.3035 12.3163 0.863281 7.95926 0.863281Z" fill="#5551FF"/>
</svg>
