<svg width="16" height="13" viewBox="0 0 16 13" fill="none" xmlns="http://www.w3.org/2000/svg">
<path d="M15.2171 2.10956C14.668 2.35285 14.0782 2.51724 13.4582 2.59154C14.0907 2.2128 14.576 1.61181 14.8048 0.896413C14.213 1.24754 13.5575 1.50266 12.8598 1.63943C12.3009 1.04502 11.5053 0.672852 10.6242 0.672852C8.93303 0.672852 7.56141 2.04447 7.56141 3.73696C7.56141 3.9763 7.58903 4.20907 7.64032 4.43395C5.09368 4.30573 2.83768 3.086 1.32667 1.23307C1.06366 1.68677 0.912425 2.2128 0.912425 2.77302C0.912425 3.83559 1.45358 4.77389 2.27484 5.32293C1.77248 5.3065 1.30037 5.16907 0.887438 4.93959V4.97904C0.887438 6.4631 1.94278 7.70124 3.34464 7.98266C3.08689 8.05236 2.81664 8.08918 2.53785 8.08918C2.34059 8.08918 2.14793 8.07077 1.96119 8.03526C2.35111 9.2517 3.48207 10.1381 4.82278 10.1617C3.77401 10.9836 2.45303 11.4735 1.01829 11.4735C0.771055 11.4735 0.527109 11.459 0.287109 11.4308C1.64295 12.3007 3.25259 12.807 4.9819 12.807C10.617 12.807 13.6975 8.13981 13.6975 4.09203C13.6975 3.96052 13.6942 3.8277 13.6883 3.69619C14.2867 3.26354 14.8061 2.72502 15.2158 2.11154L15.2171 2.10956Z" fill="#5551FF"/>
</svg>
