<svg width="17" height="22" viewBox="0 0 17 22" fill="none" xmlns="http://www.w3.org/2000/svg">
<path d="M14.7714 7.60543H13.7753V5.61325C13.7753 2.86405 11.5441 0.632812 8.79488 0.632812C6.04567 0.632812 3.81444 2.86405 3.81444 5.61325V7.60543H2.81835C1.72265 7.60543 0.826172 8.50191 0.826172 9.59761V19.5585C0.826172 20.6542 1.72265 21.5507 2.81835 21.5507H14.7714C15.8671 21.5507 16.7636 20.6542 16.7636 19.5585V9.59761C16.7636 8.50191 15.8671 7.60543 14.7714 7.60543ZM8.79488 16.5702C7.69918 16.5702 6.8027 15.6737 6.8027 14.578C6.8027 13.4823 7.69918 12.5859 8.79488 12.5859C9.89057 12.5859 10.7871 13.4823 10.7871 14.578C10.7871 15.6737 9.89057 16.5702 8.79488 16.5702ZM5.80661 7.60543V5.61325C5.80661 3.95975 7.14137 2.62499 8.79488 2.62499C10.4484 2.62499 11.7831 3.95975 11.7831 5.61325V7.60543H5.80661Z" fill="#5551FF"/>
</svg>
